<svg width="1920" height="1080" viewBox="0 0 1920 1080" xmlns="http://www.w3.org/2000/svg">
    <defs>
        <linearGradient id="poly-gradient" x1="0%" y1="0%" x2="100%" y2="100%">
            <stop offset="0%" stop-color="#1E3A8A" />
            <stop offset="100%" stop-color="#1E293B" />
        </linearGradient>
        <filter id="poly-glow">
            <feGaussianBlur stdDeviation="3" result="coloredBlur"/>
            <feMerge>
                <feMergeNode in="coloredBlur"/>
                <feMergeNode in="SourceGraphic"/>
            </feMerge>
        </filter>
    </defs>
    <rect width="100%" height="100%" fill="url(#poly-gradient)" />
    <g stroke="#A7C7E7" stroke-width="2" fill="none" stroke-opacity="0.3" filter="url(#poly-glow)">
        <polygon points="0,0 480,270 0,540" />
        <polygon points="0,540 480,270 960,540 480,810" />
        <polygon points="480,270 960,0 1440,270 960,540" />
        <polygon points="960,540 1440,270 1920,540 1440,810" />
        <polygon points="480,810 960,540 960,1080 0,1080" />
        <polygon points="960,1080 960,540 1440,810" />
        <polygon points="1440,810 1920,540 1920,1080" />
        <polygon points="0,0 960,0 480,270" />
        <polygon points="960,0 1920,0 1440,270" />
    </g>
</svg>