<svg width="1920" height="1080" viewBox="0 0 1920 1080" xmlns="http://www.w3.org/2000/svg">
    <rect width="100%" height="100%" fill="#111827" />
    <defs>
        <radialGradient id="radar-glow" cx="50%" cy="100%" r="70%" fx="50%" fy="100%">
            <stop offset="0%" stop-color="#FFD700" stop-opacity="0.3" />
            <stop offset="100%" stop-color="#FFD700" stop-opacity="0" />
        </radialGradient>
    </defs>
    <circle cx="960" cy="1080" r="1000" fill="url(#radar-glow)" />
    <g stroke="#FFD700" stroke-opacity="0.5" stroke-width="1.5">
        <!-- Concentric Circles -->
        <circle cx="960" cy="1080" r="200" fill="none" />
        <circle cx="960" cy="1080" r="400" fill="none" />
        <circle cx="960" cy="1080" r="600" fill="none" />
        <circle cx="960" cy="1080" r="800" fill="none" />
        <circle cx="960" cy="1080" r="1000" fill="none" />
        <!-- Radial Lines -->
        <line x1="960" y1="1080" x2="960" y2="80" />
        <line x1="960" y1="1080" x2="1960" y2="80" />
        <line x1="960" y1="1080" x2="-40" y2="80" />
        <line x1="960" y1="1080" x2="1499" y2="1080" />
        <line x1="960" y1="1080" x2="421" y2="1080" />
        <line x1="960" y1="1080" x2="1819" y2="444" />
        <line x1="960" y1="1080" x2="101" y2="444" />
        <line x1="960" y1="1080" x2="1499" y2="0" />
        <line x1="960" y1="1080" x2="421" y2="0" />
    </g>
</svg>