<svg width="1920" height="1080" viewBox="0 0 1920 1080" xmlns="http://www.w3.org/2000/svg">
    <!-- 
    Стиль 1: Минималистичный горный пейзаж (Flat Design)
    - Спокойная, естественная палитра.
    - Использование слоев для создания перспективы.
    - Плавные градиенты для неба и солнца.
    -->
    <defs>
        <linearGradient id="skyGradient" x1="0%" y1="0%" x2="0%" y2="100%">
            <stop offset="0%" style="stop-color:#6b7280;" />
            <stop offset="100%" style="stop-color:#1e293b;" />
        </linearGradient>
    </defs>
    
    <!-- Небо -->
    <rect width="1920" height="1080" fill="url(#skyGradient)" />
    
    <!-- Луна/Солнце -->
    <circle cx="1500" cy="300" r="100" fill="#fefce8" />
    
    <!-- Дальние горы (самые темные) -->
    <path d="M -50,800 C 300,600 600,900 950,750 C 1300,600 1600,850 1920,700 L 1920,1080 L 0,1080 Z" fill="#1f2937" />
    
    <!-- Средние горы -->
    <path d="M -50,850 C 400,700 700,950 1100,800 C 1500,650 1700,900 1920,800 L 1920,1080 L 0,1080 Z" fill="#334155" />
    
    <!-- Ближние горы (самые светлые) -->
    <path d="M -50,1000 C 300,800 650,1050 950,900 C 1250,750 1600,1000 1920,950 L 1920,1080 L 0,1080 Z" fill="#475569" />
</svg>