<svg width="1920" height="1080" viewBox="0 0 1920 1080" xmlns="http://www.w3.org/2000/svg" xmlns:xlink="http://www.w3.org/1999/xlink">
    <rect width="100%" height="100%" fill="#1a1a3a" />
    <defs>
        <linearGradient id="synthwave-gradient" x1="0%" y1="0%" x2="100%" y2="0%">
            <stop offset="0%" style="stop-color:#00f2fe" />   <!-- Cyan -->
            <stop offset="50%" style="stop-color:#7b42f5" />   <!-- Purple -->
            <stop offset="100%" style="stop-color:#ff0080" />  <!-- Hot Pink -->
        </linearGradient>
        <!-- ... (все символы иконок остаются без изменений) ... -->
        <symbol id="icon-atom" viewBox="0 0 24 24"><circle cx="12" cy="12" r="1.5"/><ellipse cx="12" cy="12" rx="10" ry="4" transform="rotate(45 12 12)"/><ellipse cx="12" cy="12" rx="10" ry="4" transform="rotate(-45 12 12)"/><ellipse cx="12" cy="12" rx="4" ry="10"/></symbol>
        <symbol id="icon-gamepad" viewBox="0 0 24 24"><path d="M16.5 8.5h-9a.5.5 0 0 0-.5.5v7a.5.5 0 0 0 .5.5h9a.5.5 0 0 0 .5-.5v-7a.5.5 0 0 0-.5-.5z"/><path d="M7 11.5H4.5m2.5 0V9m0 2.5v2.5M19.5 14a1 1 0 1 1-2 0 1 1 0 0 1 2 0z"/><path d="M17 11.5a1 1 0 1 0-2 0 1 1 0 0 0 2 0z"/><path d="M6 5.5V7a1 1 0 0 0 1 1h1m-2-2.5a2.5 2.5 0 0 1 5 0V7a1 1 0 0 1-1 1h-1"/></symbol>
        <symbol id="icon-code" viewBox="0 0 24 24"><polyline points="16 18 22 12 16 6"></polyline><polyline points="8 6 2 12 8 18"></polyline></symbol>
        <symbol id="icon-wifi" viewBox="0 0 24 24"><path d="M5 12.55a11 11 0 0 1 14.08 0"></path><path d="M1.42 9a16 16 0 0 1 21.16 0"></path><path d="M8.53 16.11a6 6 0 0 1 6.95 0"></path><line x1="12" y1="20" x2="12.01" y2="20"></line></symbol>
        <symbol id="icon-headphones" viewBox="0 0 24 24"><path d="M3 18v-6a9 9 0 0 1 18 0v6"></path><path d="M21 19a2 2 0 0 1-2 2h-1a2 2 0 0 1-2-2v-3a2 2 0 0 1 2-2h3zM3 19a2 2 0 0 0 2 2h1a2 2 0 0 0 2-2v-3a2 2 0 0 0-2-2H3z"></path></symbol>
        <symbol id="icon-pi" viewBox="0 0 24 24"><line x1="4" y1="8" x2="20" y2="8"></line><line x1="7" y1="8" x2="7" y2="20"></line><line x1="17" y1="8" x2="17" y2="20"></line></symbol>
        <symbol id="icon-unicorn" viewBox="0 0 24 24"><path d="M12.6,18.2c-0.8,0-1.6-0.3-2.2-0.8L5.9,13.3c-1.2-1-1.4-2.8-0.4-4.1c1-1.2,2.8-1.4,4.1-0.4l1.3,1V5.4l-1.3-1.3 c-0.6-0.6-0.6-1.5,0-2.1c0.6-0.6,1.5-0.6,2.1,0L13,3.3l1.3-1.3c0.6-0.6,1.5-0.6,2.1,0c0.6,0.6,0.6,1.5,0,2.1L15,5.6V12l1.3-1 c1.2-1,3-0.8,4.1,0.4c1,1.2,0.8,3-0.4,4.1l-4.5,4.1C14.2,17.9,13.4,18.2,12.6,18.2z M12,10l-1.3,1.3c-0.6,0.6-1.5,0.6-2.1,0 c-0.6-0.6-0.6-1.5,0-2.1L10,8V5.4L8.7,4.1c-0.6-0.6-0.6-1.5,0-2.1c0.6-0.6,1.5-0.6,2.1,0L12,3.3l1.3-1.3c0.6-0.6,1.5-0.6,2.1,0 c0.6,0.6,0.6,1.5,0,2.1L14,5.6V8l1.3,1.3c0.6,0.6,0.6,1.5,0,2.1c-0.3,0.3-0.7,0.4-1,0.4s-0.7-0.1-1-0.4L12,10z"/></symbol>
        <symbol id="icon-ghost" viewBox="0 0 24 24"><path d="M9 10h.01M15 10h.01M12 2a8 8 0 0 0-8 8v12l3-3 2.5 2.5L12 19l2.5 2.5L17 19l3 3V10a8 8 0 0 0-8-8z"></path></symbol>
        <symbol id="icon-spider" viewBox="0 0 24 24"><path d="M12 2a8 8 0 0 0-8 8c0 2.5.9 4.7 2.4 6.3l-1.9 2.5a1 1 0 1 0 1.6 1.2l2.3-3c.4.1.8.2 1.2.2h.8c.4 0 .8-.1 1.2-.2l2.3 3a1 1 0 1 0 1.6-1.2l-1.9-2.5A8 8 0 0 0 20 10a8 8 0 0 0-8-8zm-4 8a1 1 0 1 1 2 0 1 1 0 0 1-2 0zm8 0a1 1 0 1 1-2 0 1 1 0 0 1 2 0z"/><path d="M2.5 12.3a1 1 0 1 0-1.6-1.2L3.6 9c.3.3.4.7.2 1l-1.3 2.3zm19-1.2a1 1 0 1 0-1.6 1.2L19.2 10c-.1-.3 0-.7.2-1l2.7 2.3zM4 5.1a1 1 0 1 0-1.9.6l2.5 3.1c.3.4.9.4 1.2 0l1-1.3a1 1 0 1 0-1.6-1.2L4 5.1zm16 .6a1 1 0 1 0-1.9-.6L15.4 8c-.3.4-.3.9 0 1.2l1 1.3a1 1 0 0 0 1.6-1.2l2-3.1z"/></symbol>
        <symbol id="icon-skull" viewBox="0 0 24 24"><circle cx="9" cy="12" r="1"></circle><circle cx="15" cy="12" r="1"></circle><path d="M8 20v2h8v-2h-2v-2h-4v2H8z"></path><path d="M12 2a9 9 0 0 0-9 9v5.09c0 .93.44 1.78 1.17 2.34L6 20h12l1.83-1.57c.73-.56 1.17-1.41 1.17-2.34V11a9 9 0 0 0-9-9z"></path></symbol>
        <symbol id="icon-lego" viewBox="0 0 24 24"><rect x="3" y="3" width="18" height="18" rx="2"></rect><circle cx="8.5" cy="8.5" r="1.5"></circle><circle cx="15.5" cy="8.5" r="1.5"></circle><circle cx="8.5" cy="15.5" r="1.5"></circle><circle cx="15.5" cy="15.5" r="1.5"></circle></symbol>
        <symbol id="icon-guitar" viewBox="0 0 24 24"><path d="m13.3 5.4 4.3 4.3-1.4 1.4-4.3-4.3 1.4-1.4zM9.9 8.8l4.3 4.3-1.4 1.4-4.3-4.3 1.4-1.4zM8 21s-3-3-3-5 2-4 4-4 5 1 5 3-2 6-2 6m-3-11 4-4"></path></symbol>
        <symbol id="icon-monalisa" viewBox="0 0 24 24"><rect x="3" y="3" width="18" height="18" rx="2"></rect><path d="M12 14c-1.5 0-3-1-3-3s1.5-3 3-3c2 0 3 1 3 3c0 1-1 2-1 2M9 8a2 2 0 1 0 0-4 2 2 0 0 0 0 4zm6 0a2 2 0 1 0 0-4 2 2 0 0 0 0 4z"></path><path d="M12 14v3m-2.5-3.5C7 12 7 14.5 9.5 16S14.5 17 17 15.5 17 12 14.5 10.5"></path></symbol>
        <symbol id="icon-diamond" viewBox="0 0 24 24"><path d="M2.7 10.3a1 1 0 0 0-1.4 1.4l10 10a1 1 0 0 0 1.4 0l10-10a1 1 0 0 0-1.4-1.4L12 19.58 2.7 10.3zM12 2l10.3 10.3a1 1 0 0 1-1.4 1.4L12 4.42 3.1 13.7a1 1 0 0 1-1.4-1.4L12 2z"></path></symbol>
        <symbol id="icon-flower" viewBox="0 0 24 24"><path d="M12 5a3 3 0 1 1 0 6 3 3 0 0 1 0-6z"></path><path d="M17 8a3 3 0 1 1-6 0 3 3 0 0 1 6 0z"></path><path d="M19 14a3 3 0 1 1 0-6 3 3 0 0 1 0 6z"></path><path d="M12 19a3 3 0 1 1 0-6 3 3 0 0 1 0 6z"></path><path d="M7 16a3 3 0 1 1 6 0 3 3 0 0 1-6 0z"></path><path d="M5 10a3 3 0 1 1 0-6 3 3 0 0 1 0 6z"></path></symbol>
        <symbol id="icon-peace" viewBox="0 0 24 24"><circle cx="12" cy="12" r="10"></circle><line x1="12" y1="2" x2="12" y2="22"></line><line x1="12" y1="12" x2="18.36" y2="18.36"></line><line x1="12" y1="12" x2="5.64" y2="18.36"></line></symbol>
        <symbol id="icon-paw" viewBox="0 0 24 24"><circle cx="11" cy="4" r="2"></circle><circle cx="18" cy="8" r="2"></circle><circle cx="4" cy="11" r="2"></circle><path d="M15.8 13.4a2 2 0 1 0 2.8 2.8 2 2 0 0 0-2.8-2.8z"></path><path d="M11 15.8a2 2 0 1 0 2.8 2.8 2 2 0 0 0-2.8-2.8z"></path><path d="m8.6 8.6-.6-.6a2 2 0 1 0-2.8 2.8l.6.6a2 2 0 0 0 2.8-2.8z"></path><path d="M9.8 17.2a2 2 0 0 1-1.4 1.4"></path></symbol>
        <symbol id="filler-wave" viewBox="0 0 50 20"><path d="M 0 10 C 10 0, 20 20, 30 10 S 40 0, 50 10"></path></symbol>
        <symbol id="filler-circle" viewBox="0 0 24 24"><circle cx="12" cy="12" r="10"></circle></symbol>
        <symbol id="filler-plus" viewBox="0 0 24 24"><line x1="12" y1="5" x2="12" y2="19"></line><line x1="5" y1="12" x2="19" y2="12"></line></symbol>
    </defs>
    <g stroke="url(#synthwave-gradient)" fill="none" stroke-width="2.5" stroke-linecap="round" stroke-linejoin="round">
        <use xlink:href="#icon-spider" x="80" y="50" width="70" height="70" transform="rotate(-15 115 85)"/><use xlink:href="#icon-atom" x="250" y="80" width="90" height="90"/><use xlink:href="#icon-monalisa" x="450" y="60" width="80" height="80" transform="rotate(10 490 100)"/><use xlink:href="#icon-ghost" x="650" y="90" width="60" height="60"/><use xlink:href="#filler-wave" x="780" y="120" width="100" height="20"/><use xlink:href="#icon-pi" x="950" y="70" width="50" height="50"/><use xlink:href="#icon-unicorn" x="1100" y="50" width="100" height="100" transform="rotate(15 1150 100)"/><use xlink:href="#filler-circle" x="1300" y="110" width="30" height="30"/><use xlink:href="#icon-skull" x="1450" y="80" width="65" height="65"/><use xlink:href="#filler-plus" x="1650" y="100" width="40" height="40" transform="rotate(45 1670 120)"/><use xlink:href="#icon-peace" x="1780" y="60" width="70" height="70"/><use xlink:href="#filler-circle" x="40" y="250" width="25" height="25"/><use xlink:href="#icon-headphones" x="180" y="220" width="70" height="70"/><use xlink:href="#filler-wave" x="330" y="260" width="120" height="24"/><use xlink:href="#icon-lego" x="500" y="230" width="80" height="80" transform="rotate(-20 540 270)"/><use xlink:href="#icon-diamond" x="700" y="250" width="75" height="75"/><use xlink:href="#filler-circle" x="880" y="240" width="20" height="20"/><use xlink:href="#icon-paw" x="1000" y="280" width="50" height="50"/><use xlink:href="#filler-plus" x="1150" y="250" width="30" height="30"/><use xlink:href="#icon-code" x="1300" y="230" width="90" height="90" transform="rotate(5 1345 275)"/><use xlink:href="#filler-wave" x="1500" y="280" width="150" height="30" transform="rotate(180 1575 295)"/><use xlink:href="#icon-flower" x="1700" y="240" width="70" height="70"/><use xlink:href="#filler-circle" x="1850" y="260" width="30" height="30"/><use xlink:href="#icon-gamepad" x="100" y="450" width="90" height="90"/><use xlink:href="#filler-plus" x="280" y="480" width="40" height="40"/><use xlink:href="#icon-guitar" x="400" y="420" width="110" height="110" transform="rotate(25 455 475)"/><use xlink:href="#filler-circle" x="600" y="460" width="35" height="35"/><use xlink:href="#icon-wifi" x="750" y="440" width="80" height="80"/><use xlink:href="#icon-spider" x="950" y="410" width="90" height="90"/><use xlink:href="#filler-wave" x="1150" y="470" width="130" height="26"/><use xlink:href="#icon-atom" x="1350" y="430" width="100" height="100"/><use xlink:href="#icon-peace" x="1550" y="480" width="50" height="50"/><use xlink:href="#icon-ghost" x="1700" y="440" width="70" height="70" transform="rotate(-10 1735 475)"/><use xlink:href="#filler-circle" x="1860" y="490" width="20" height="20"/><use xlink:href="#filler-wave" x="50" y="650" width="150" height="30"/><use xlink:href="#icon-skull" x="250" y="620" width="60" height="60"/><use xlink:href="#filler-circle" x="380" y="680" width="30" height="30"/><use xlink:href="#icon-pi" x="500" y="640" width="55" height="55"/><use xlink:href="#icon-monalisa" x="650" y="610" width="85" height="85" transform="rotate(-5 692 652)"/><use xlink:href="#filler-plus" x="830" y="650" width="35" height="35"/><use xlink:href="#icon-unicorn" x="950" y="600" width="100" height="100" transform="rotate(-15 1000 650)"/><use xlink:href="#icon-paw" x="1180" y="660" width="45" height="45"/><use xlink:href="#icon-lego" x="1300" y="630" width="70" height="70"/><use xlink:href="#filler-circle" x="1480" y="670" width="25" height="25"/><use xlink:href="#icon-headphones" x="1600" y="620" width="80" height="80"/><use xlink:href="#filler-wave" x="1780" y="650" width="120" height="24"/><use xlink:href="#icon-diamond" x="120" y="820" width="80" height="80"/><use xlink:href="#filler-circle" x="290" y="850" width="20" height="20"/><use xlink:href="#icon-flower" x="400" y="800" width="70" height="70"/><use xlink:href="#icon-code" x="550" y="830" width="80" height="80" transform="rotate(10 590 870)"/><use xlink:href="#filler-plus" x="720" y="810" width="30" height="30"/><use xlink:href="#icon-atom" x="850" y="780" width="110" height="110"/><use xlink:href="#filler-wave" x="1050" y="840" width="160" height="32"/><use xlink:href="#icon-gamepad" x="1280" y="800" width="95" height="95"/><use xlink:href="#icon-spider" x="1480" y="830" width="75" height="75"/><use xlink:href="#filler-circle" x="1650" y="810" width="35" height="35"/><use xlink:href="#icon-wifi" x="1750" y="800" width="90" height="90"/><use xlink:href="#filler-wave" x="80" y="1000" width="180" height="36"/><use xlink:href="#filler-plus" x="300" y="980" width="25" height="25"/><use xlink:href="#icon-skull" x="450" y="950" width="55" height="55" transform="rotate(20 477 977)"/><use xlink:href="#filler-circle" x="600" y="1010" width="40" height="40"/><use xlink:href="#icon-guitar" x="750" y="960" width="100" height="100"/><use xlink:href="#icon-peace" x="980" y="990" width="60" height="60"/><use xlink:href="#filler-wave" x="1150" y="970" width="140" height="28" transform="rotate(10 1220 984)"/><use xlink:href="#icon-ghost" x="1380" y="960" width="65" height="65"/><use xlink:href="#filler-circle" x="1550" y="1000" width="25" height="25"/><use xlink:href="#icon-lego" x="1680" y="950" width="80" height="80"/><use xlink:href="#filler-plus" x="1850" y="980" width="30" height="30"/>
    </g>
</svg>